<?xml version="1.0" encoding="UTF-8"?><svg id="Layer_2" xmlns="http://www.w3.org/2000/svg" viewBox="0 0 314.53 108.55"><defs><style>.cls-1{fill:#fff;}</style></defs><g id="Layer_1-2"><g><g><path d="M32.06,91.28h5.64c4.67,0,7.9,3.26,7.9,8.36s-3.16,8.66-7.93,8.66h-5.62v-17.02Zm1.31,15.81h4.11c4.5,0,6.71-3.16,6.71-7.37,0-3.75-1.99-7.22-6.71-7.22h-4.11v14.59Z"/><path d="M56.52,91.28v17.02h-1.31v-17.02h1.31Z"/><path d="M67.27,103.74c.51,2.26,2.02,3.6,4.82,3.6,3.11,0,4.3-1.56,4.3-3.41s-.85-3.11-4.6-4.04c-3.6-.9-5.16-2.07-5.16-4.52,0-2.24,1.63-4.33,5.28-4.33s5.33,2.29,5.54,4.35h-1.36c-.39-1.82-1.58-3.14-4.26-3.14-2.46,0-3.79,1.14-3.79,3.04s1.12,2.6,4.26,3.38c4.79,1.19,5.5,3.11,5.5,5.16,0,2.5-1.82,4.67-5.76,4.67-4.26,0-5.81-2.48-6.13-4.77h1.36Z"/><path d="M90.76,92.5h-5.71v-1.22h12.79v1.22h-5.74v15.81h-1.34v-15.81Z"/><path d="M107.56,100.36v7.95h-1.34v-17.02h6.1c3.36,0,5.13,1.8,5.13,4.47,0,2.16-1.29,3.58-3.19,3.99,1.75,.41,2.92,1.56,2.92,4.45v.66c0,1.19-.1,2.8,.22,3.45h-1.34c-.32-.73-.24-2.09-.24-3.55v-.44c0-2.8-.83-3.96-4.09-3.96h-4.18Zm0-1.22h4.11c2.99,0,4.38-1.12,4.38-3.36,0-2.09-1.36-3.28-4.01-3.28h-4.47v6.64Z"/><path d="M128.79,91.28v17.02h-1.31v-17.02h1.31Z"/><path d="M139.66,91.28h5.93c3.26,0,5.01,1.73,5.01,4.18,0,2.02-1.22,3.33-2.63,3.72,1.22,.34,3.23,1.53,3.23,4.21,0,3.41-2.55,4.91-5.52,4.91h-6.03v-17.02Zm5.5,7.32c2.94,0,4.06-1.09,4.06-3.06,0-1.68-1.17-3.04-3.55-3.04h-4.72v6.1h4.21Zm-4.21,8.49h4.79c2.24,0,4.11-1.12,4.11-3.62,0-2.16-1.39-3.65-4.82-3.65h-4.09v7.27Z"/><path d="M161.91,91.28v10.31c0,4.52,2.55,5.69,4.96,5.69,2.84,0,4.96-1.19,4.96-5.69v-10.31h1.34v10.24c0,5.33-2.82,6.98-6.35,6.98s-6.27-1.82-6.27-6.76v-10.46h1.36Z"/><path d="M187.36,92.5h-5.71v-1.22h12.79v1.22h-5.74v15.81h-1.34v-15.81Z"/><path d="M204.14,91.28v17.02h-1.31v-17.02h1.31Z"/><path d="M229.07,99.67c0,4.64-2.48,8.88-7.73,8.88-4.79,0-7.59-3.87-7.59-8.76s2.7-8.76,7.76-8.76c4.67,0,7.56,3.67,7.56,8.63Zm-13.91,.05c0,3.92,2.16,7.61,6.25,7.61,4.4,0,6.25-3.6,6.25-7.64s-2.09-7.44-6.2-7.44c-4.38,0-6.3,3.62-6.3,7.47Z"/><path d="M238.67,108.31v-17.02h1.95c2.65,4.08,8.88,13.59,9.95,15.44h.02c-.15-2.46-.12-4.96-.12-7.73v-7.71h1.34v17.02h-1.8c-2.53-3.94-8.85-13.84-10.07-15.71h-.02c.12,2.24,.1,4.72,.1,7.81v7.9h-1.34Z"/><path d="M262.55,103.74c.51,2.26,2.02,3.6,4.82,3.6,3.11,0,4.3-1.56,4.3-3.41s-.85-3.11-4.6-4.04c-3.6-.9-5.16-2.07-5.16-4.52,0-2.24,1.63-4.33,5.28-4.33s5.33,2.29,5.55,4.35h-1.36c-.39-1.82-1.58-3.14-4.26-3.14-2.46,0-3.79,1.14-3.79,3.04s1.12,2.6,4.26,3.38c4.79,1.19,5.5,3.11,5.5,5.16,0,2.5-1.82,4.67-5.76,4.67-4.26,0-5.81-2.48-6.13-4.77h1.36Z"/></g><path d="M0,15.73c0-1.48,1.2-2.67,2.67-2.67H19.11c10.5,0,16.14,5.56,16.14,13.47,0,4.33-1.74,7.66-4.25,9.77-1.37,1.15-1.33,3.26,.16,4.26,3.11,2.09,6.05,5.73,6.05,11.51,0,10.97-8.23,15.82-17.78,15.82H2.67c-1.48,0-2.67-1.2-2.67-2.67V15.73Zm17.7,20.9c9.48,0,13.08-3.52,13.08-9.87,0-5.41-3.76-9.79-11.44-9.79H6.83c-1.48,0-2.67,1.2-2.67,2.67v14.31c0,1.48,1.2,2.67,2.67,2.67h10.88ZM4.15,61.3c0,1.48,1.2,2.67,2.67,2.67h12.76c7.21,0,13.24-3.6,13.24-11.67,0-6.97-4.47-11.75-15.51-11.75H6.83c-1.48,0-2.67,1.2-2.67,2.67v18.07Z"/><path d="M95.65,40.95h-24.05c-1.08,0-1.96,.88-1.96,1.96v19.11c0,1.08,.88,1.96,1.96,1.96h26.37c1.21,0,2.12,1.08,1.93,2.27h0c-.15,.95-.97,1.65-1.93,1.65h-30.61c-1.08,0-1.96-.88-1.96-1.96V15.02c0-1.08,.88-1.96,1.96-1.96h29.69c1.08,0,1.96,.88,1.96,1.96h0c0,1.08-.88,1.96-1.96,1.96h-25.46c-1.08,0-1.96,.88-1.96,1.96v16.14c0,1.08,.88,1.96,1.96,1.96h24.05c1.08,0,1.96,.88,1.96,1.96h0c0,1.08-.88,1.96-1.96,1.96Z"/><path d="M144.58,78.5L116.95,4.12c-.74-1.99,.73-4.12,2.86-4.12h.16c1.28,0,2.42,.79,2.86,1.99l14.9,40.1c4.49,12.19,9.54,25.64,11.27,32.43h.23c1.73-5.98,7.24-20.12,11.73-31.97L176.42,1.97c.45-1.18,1.59-1.97,2.85-1.97h0c2.14,0,3.62,2.15,2.85,4.15l-28.69,74.39c-.45,1.18-1.59,1.95-2.85,1.95h-3.14c-1.28,0-2.42-.79-2.86-1.99Z"/><path d="M233.65,67.9h0c-1,0-1.82-.75-1.91-1.75-.04-.43-.07-.93-.1-1.5-.08-1.66-2.09-2.38-3.28-1.21-2.72,2.7-7.15,5.08-14.58,5.08-15.75,0-23.81-11.99-23.81-27.58,0-16.37,8.62-28.67,24.68-28.67,10.86,0,18.36,5.22,20.84,13.9,.34,1.2-.6,2.39-1.86,2.39h-.45c-.79,0-1.52-.48-1.78-1.23-2.54-7.01-7.86-11.15-16.91-11.15-13.71,0-19.98,10.65-19.98,24.52,0,12.53,6.03,23.89,19.43,23.89s17.55-8.93,17.55-21.07v-.63h-15.79c-1.06,0-1.92-.86-1.92-1.92v-.09c0-1.06,.86-1.92,1.92-1.92h17.95c1.06,0,1.92,.86,1.92,1.92v25.08c0,1.06-.86,1.92-1.92,1.92Z"/><circle cx="283.53" cy="41.66" r="31"/><path class="cls-1" d="M301.46,39.03c-.27-.18-.49-.33-.73-.48-.37-.22-.75-.41-1.18-.45-.4-.04-.77,.05-1.1,.27-.1,.07-.17,.07-.26,0-.25-.24-.51-.48-.77-.72-.05-.05-.09-.1-.13-.15-.01,0-.03,.01-.04,.02,.02,.17,.04,.35,.06,.52,.13,.99,.55,1.86,1.09,2.69,.3,.47,.56,.96,.8,1.47,.1,.22,.12,.5,.13,.75,0,.24-.2,.42-.44,.47,.04-.13,.08-.25,.1-.38,.07-.31-.06-.47-.37-.42-.33,.06-.64,.17-.96,.27-.23,.07-.45,.14-.68,.2-.51,.13-1,0-1.49-.16-.22-.07-.45-.14-.67-.22-.34-.12-.62-.03-.88,.22-.25,.23-.5,.46-.78,.65-.54,.36-1.14,.53-1.79,.56-.05,0-.09,0-.14,0,0,0-.02,.01-.04,.03,.02,.03,.03,.06,.06,.07,.4,.24,.79,.49,1.19,.72,.21,.12,.44,.1,.66,.04,.29-.07,.58-.16,.87-.24,.06-.02,.15-.02,.19,.02,.4,.39,.84,.73,1.15,1.21,.71,1.08,.66,2.23-.14,3.25-.62,.79-1.4,1.37-2.23,1.91-.64,.42-1.31,.79-2.04,1.04-.71,.24-1.42,.34-2.14,.07-.49-.18-.88-.5-1.22-.98,.57-.06,1.08-.21,1.56-.47,.47-.26,.95-.51,1.32-.93-.05,.02-.1,.04-.15,.05-.48,.14-.96,.33-1.45,.42-.6,.11-1.17-.1-1.73-.31-.04-.02-.09-.07-.1-.11-.11-.56-.12-1.12-.01-1.68,0,0,.01-.02,.04-.04,.99,.49,2.02,.43,3.06,.12-.18-.02-.36-.04-.53-.05-.9-.05-1.57-.51-2.12-1.18-.04-.05-.05-.15-.03-.21,.33-.75,.83-1.38,1.46-1.9,.1-.09,.26-.11,.39-.16,.18-.06,.37-.09,.55-.15,.06-.02,.12-.06,.18-.11-.82-.17-1.59-.44-2.32-.84-.73-.39-1.39-.87-1.97-1.47,.46,1.01,1.13,1.85,2.12,2.45-.17,.15-.31,.3-.47,.43-.85,.72-1.79,1.29-2.92,1.48-1.19,.2-2.27-.08-3.22-.83-.12-.1-.26-.17-.37-.28-.17-.16-.32-.34-.48-.53,1.31,.3,2.61,.52,3.94,.08-.09-.02-.19-.05-.28-.06-.79-.15-1.54-.4-2.17-.91-.45-.36-.78-.81-.85-1.39-.11-.84,.28-1.46,.96-1.91,.52-.35,1.12-.5,1.74-.54,.64-.04,1.27,.02,1.88,.18,.75,.2,1.48,.11,2.21-.08,.42-.11,.84-.18,1.26-.28,.15-.03,.23,0,.31,.13,.59,.88,1.33,1.63,2.21,2.23,.03,.02,.06,.04,.09,.05,0,0,.02,0,.08,0-1.32-1.59-2.15-3.34-1.93-5.46-.02,0-.04,0-.05,0-.05,.08-.11,.15-.14,.24-.12,.26-.23,.53-.35,.79-.04,.1-.09,.2-.14,.29-.16,.26-.33,.32-.62,.22-.14-.05-.28-.1-.42-.16-.91-.41-1.81-.29-2.68,.11-.38,.18-.73,.41-1.09,.63-.65,.4-1.34,.63-2.1,.6-.31-.01-.59-.13-.84-.29-.38-.25-.52-.73-.36-1.2,.22-.64,.64-1.14,1.15-1.56,.04-.03,.08-.07,.12-.1,0,0,0-.02,.02-.05-.49-.41-1.07-.66-1.7-.81,0-.02,0-.03,0-.05,.2-.03,.4-.07,.6-.09,.59-.05,1.17,0,1.74,.19,.05,.02,.14,.02,.17,0,.19-.15,.37-.31,.58-.48-.07-.04-.12-.07-.18-.09-.7-.26-1.43-.35-2.17-.31-.42,.02-.85,.09-1.27,.13-.13,.01-.19,.08-.22,.2-.41,1.35-.21,2.63,.45,3.85,.08,.15,.24,.31,.23,.45-.01,.13-.21,.24-.32,.36-.08,.08-.15,.17-.24,.26-.49-.68-.9-1.39-1.16-2.17-.35-1.06-.32-2.1,.11-3.14,.12-.3,.3-.51,.65-.58,1.16-.24,2.31-.4,3.49-.24,.74,.1,1.44,.35,2.13,.64,.11,.05,.2,.05,.31,0,.85-.43,1.72-.81,2.65-1.03,1.74-.42,3.32-.07,4.73,1.02,.33,.26,.64,.54,.95,.83,.1,.1,.18,.1,.3,.04,.6-.3,1.19-.62,1.81-.88,1.24-.51,2.37-.3,3.36,.63,.79,.74,1.49,1.55,1.98,2.53,.15,.29,.25,.6,.25,.93,0,.08-.02,.17-.03,.29Z"/><path class="cls-1" d="M280.48,17.42c-.16,.14-.29,.25-.41,.37-.89,.94-.96,2.22-.17,3.24,.59,.78,1.41,1.16,2.36,1.27,.88,.1,1.7-.09,2.43-.59,.89-.61,1.46-1.43,1.46-2.55,0-.77-.36-1.38-.93-1.89-.05-.04-.1-.08-.16-.14,1.47-1.29,2.65-2.78,3.55-4.56,.03,.09,.04,.14,.06,.2,.25,.94,.49,1.89,.77,2.83,.25,.82,.64,1.58,1.23,2.21,.02,.02,.03,.05,.05,.07-.24,.21-.48,.4-.7,.61-.45,.43-.8,.93-.95,1.55-.25,1.06,.35,2.18,1.39,2.62,.52,.22,1.05,.28,1.6,.15,.87-.22,1.4-.87,1.43-1.77,.02-.6-.14-1.17-.36-1.72-.03-.08-.06-.15-.09-.24,1.19-.12,2.23-.6,3.26-1.23-.06,.16-.11,.29-.16,.41-.63,1.52-1.27,3.05-1.9,4.57-.41,.99-.83,1.98-1.24,2.98-.05,.13-.1,.15-.24,.11-1.56-.48-3.14-.86-4.75-1.12-1.43-.23-2.87-.36-4.31-.39-1.96-.04-3.9,.12-5.82,.48-1.66,.31-3.29,.76-4.88,1.35-.27,.1-.27,.1-.41-.16-.3-.56-.59-1.12-.88-1.68-.71-1.34-1.42-2.67-2.12-4.01-.16-.3-.32-.6-.48-.9-.02-.03-.03-.07-.06-.14,1.07,.52,2.15,.91,3.35,.91-.02,.07-.03,.12-.05,.17-.17,.58-.19,1.16-.03,1.75,.26,.96,1.17,1.72,2.17,1.79,.86,.06,1.59-.22,2.16-.86,.4-.45,.57-1,.54-1.6-.04-.71-.27-1.35-.76-1.89-.3-.33-.68-.54-1.11-.66-.02,0-.05-.01-.1-.03,1.14-1.4,1.34-3.04,1.25-4.76,1.08,1.4,2.26,2.67,4.04,3.24Z"/><path class="cls-1" d="M268.32,45.7c-.4,2-.14,3.91,.4,5.81,.02,.08,.06,.17,.11,.26,.16-4.83,2.54-8.14,6.82-10.18,.01,0,.03,.02,.04,.03-.16,.19-.33,.38-.49,.57-.92,1.1-1.66,2.31-2.1,3.7-.51,1.64-.5,3.27-.03,4.92,.47,1.66,1.29,3.14,2.26,4.55,1.05,1.51,2.27,2.88,3.52,4.23,1.3,1.41,2.28,3,2.84,4.83,.56,1.81,.57,3.62-.05,5.43-.09,.27-.21,.52-.32,.79-.02,0-.03,0-.05,0,0-.05-.02-.1-.02-.14-.01-1.1-.4-2.05-1.06-2.91-.64-.83-1.42-1.49-2.29-2.05-1.22-.79-2.47-1.53-3.72-2.29-1.34-.81-2.68-1.64-3.89-2.65-1.44-1.21-2.56-2.65-3.3-4.38-.65-1.54-.97-3.14-.89-4.81,.08-1.7,.58-3.26,1.49-4.7,.19-.3,.4-.58,.6-.86,.02-.04,.06-.06,.11-.12Z"/><path class="cls-1" d="M278.57,41.71c-.09,.22-.18,.44-.27,.66-.36,.96-.39,1.94-.24,2.94,.22,1.47,.79,2.81,1.51,4.09,.61,1.07,1.29,2.1,1.94,3.14,.03,.05,.08,.1,.14,.18,.18-2.24,1.32-3.69,3.39-4.4,.02,.01,.04,.02,.06,.03-.02,.06-.03,.11-.05,.17-.39,1.03-.55,2.1-.46,3.2,.08,.99,.32,1.95,.69,2.87,.41,1.04,.91,2.03,1.43,3.02,.59,1.13,1.18,2.27,1.51,3.51,.42,1.59,.2,3.08-.78,4.43-.23,.31-.48,.61-.75,.95-.04-.12-.06-.17-.08-.23-.26-1.27-.78-2.44-1.46-3.54-.63-1.01-1.37-1.92-2.17-2.79-.95-1.02-1.92-2.02-2.88-3.02-.85-.89-1.68-1.8-2.4-2.8-.99-1.38-1.8-2.84-2.22-4.49-.46-1.81-.34-3.57,.59-5.23,.6-1.07,1.43-1.94,2.4-2.68,.03-.02,.06-.04,.08-.05,0,0,.02,.01,.03,.02Z"/><path class="cls-1" d="M265.45,47.1c-.15-.05-.19,.01-.21,.16-.05,.47-.11,.93-.17,1.4,0,.01-.02,.03-.05,.07-.06-.28-.12-.54-.16-.79-.3-1.62-.39-3.24-.19-4.88,.25-1.97,.87-3.8,2.06-5.41,.94-1.28,2.12-2.26,3.57-2.91,.51-.23,1.05-.39,1.58-.59,.03,0,.05-.02,.08-.03-.46-.18-2.3-.17-3.68,.21-1.2,.33-2.3,.87-3.29,1.63-.01-.01-.02-.02-.04-.04,.09-.16,.18-.33,.27-.49,.6-1.04,1.32-1.99,2.24-2.79,1.14-.99,2.47-1.61,3.97-1.84,1.36-.21,2.7-.11,4.02,.2,.65,.15,1.28,.38,1.93,.53,.59,.13,1.19,.23,1.78,.3,.96,.12,1.93,.2,2.86,.51,.1,.03,.22,.05,.2,.21,0,.02,.07,.07,.11,.08,.12,.03,.23,.05,.35,.05-.4,0-.81,0-1.21,0-.89-.02-1.77,.04-2.64,.25-1.05,.26-1.95,.8-2.78,1.48-.73,.59-1.44,1.19-2.18,1.77-.68,.52-1.43,.92-2.21,1.26-.36,.16-.73,.3-1.14,.47,.99,.35,1.97,.48,2.97,.49,1,.02,1.98-.08,2.98-.28-.04,.04-.07,.08-.11,.11-1.06,.97-2.23,1.8-3.53,2.42-1.01,.48-2.04,.92-3.06,1.39-.73,.34-1.43,.72-2.05,1.24-.99,.84-1.61,1.92-2.04,3.12-.08,.23-.15,.46-.22,.69Z"/><path class="cls-1" d="M300.48,58.92c-.06-1.11-.42-2.13-1-3.07,0,.12,0,.24,0,.35,0,1.27-.4,2.44-.96,3.56-.39,.77-.86,1.48-1.52,2.06-.24,.21-.51,.37-.77,.55-.04,.03-.1,.04-.18,.08,.04-.2,.07-.37,.1-.54,.09-.55,.11-1.1-.04-1.64-.21-.77-.73-1.29-1.43-1.64-.7-.36-1.47-.53-2.24-.65-.42-.07-.86-.12-1.26-.26-.85-.29-1.45-1.15-1.44-2,0-.62,.29-1.11,.76-1.5,1.1-.92,2.28-1.73,3.52-2.46,.61-.36,1.24-.69,1.87-.99,.47-.23,.98-.34,1.51-.25,.46,.07,.86,.27,1.2,.57,1.2,1.03,2.2,2.23,2.76,3.73,.48,1.29,.41,2.53-.44,3.67-.11,.16-.25,.3-.37,.45-.02,0-.04,0-.06-.01Z"/><path class="cls-1" d="M269.66,29.41c-.26,.14-.49,.27-.73,.39-.01-.02-.03-.04-.04-.05,.25-.2,.49-.41,.74-.6,1.15-.82,2.43-1.37,3.76-1.82,1.86-.64,3.76-1.07,5.72-1.22,1.2-.09,2.39-.09,3.57,.21,.73,.19,1.42,.48,1.98,1.01,.51,.48,.85,1.08,1.16,1.7,.35,.71,.72,1.41,1.08,2.12,.06,.12,.11,.25,.18,.37,.04,.08,.09,.16,.15,.22,.2,.18,.4,.35,.61,.53,0,.01-.02,.03-.02,.04-.42-.15-.84-.29-1.26-.44-1.09-.39-2.18-.8-3.28-1.18-.64-.22-1.32-.33-2-.32-1.24,.02-2.44-.18-3.63-.49-1.07-.27-2.13-.57-3.23-.7-1.27-.15-2.54-.09-3.79,.18-.26,.06-.52,.13-.79,.2-.11,.03-.18,.01-.17-.15Z"/><path class="cls-1" d="M293.37,33.48c-.21-.07-.39-.13-.56-.19-.95-.35-1.87-.75-2.7-1.33-.93-.65-1.57-1.52-1.97-2.57-.2-.52-.41-1.04-.65-1.54-.34-.71-.92-1.21-1.58-1.62-.49-.3-1-.57-1.56-.72-.04,0-.07-.03-.09-.08,.31,.03,.62,.05,.94,.09,.92,.12,1.85,.22,2.77,.37,.95,.16,1.87,.41,2.73,.88,.68,.37,1.21,.88,1.49,1.61,.12,.32,.16,.67,.18,1.01,.04,.5,0,1.01,.04,1.52,.06,.89,.4,1.68,.88,2.42,.02,.03,.04,.07,.09,.14Z"/><path class="cls-1" d="M302.46,47.37c-.84,.11-1.46-.34-2.09-.74-.01,.01-.03,.03-.04,.04,.23,.25,.44,.5,.68,.73,.45,.45,.98,.78,1.6,.94,.11,.03,.17,.08,.17,.2,0,.36-.01,.71-.02,1.07,0,.12-.06,.15-.18,.13-.77-.07-1.36-.5-1.9-1-.15-.14-.28-.29-.42-.44-.02,.02-.04,.03-.07,.05,.21,.33,.41,.67,.64,.99,.41,.55,.86,1.07,1.48,1.39,.04,.02,.08,.12,.06,.16-.24,.57-.57,1.08-.99,1.58-.06-.12-.11-.21-.16-.3-.56-1.09-1.36-1.97-2.3-2.74-.51-.42-1.04-.82-1.54-1.25-.36-.31-.66-.67-.78-1.14-.07-.26-.07-.53-.08-.8,0-.16,.09-.29,.22-.39,1.23-1.07,2.97-1.15,4.31-.2,.55,.39,.99,.89,1.3,1.49,.03,.06,.06,.13,.09,.22Z"/><path class="cls-1" d="M293.45,26.75c.07,.01,.15,.03,.23,.05,.87,.24,1.7,.56,2.41,1.15,.65,.53,.99,1.21,.93,2.07-.01,.15-.04,.3-.07,.49,.78-.42,1.2-1.03,1.19-1.94,.06,.05,.1,.07,.12,.1,.39,.46,.72,.94,.85,1.54,.3,1.32-.43,2.42-1.69,2.62-.38,.06-.76,.1-1.14,.17-.44,.08-.83,.26-1.19,.54-.28-.32-.49-.68-.67-1.05-.37-.77-.39-1.57-.23-2.39,.08-.41,.18-.81,.24-1.22,.09-.58-.08-1.1-.47-1.55-.17-.19-.34-.38-.52-.58Z"/><path class="cls-1" d="M298.89,39.91c.52,.19,1.03,.27,1.55,.25,.29-.01,.57-.06,.86-.08,.07,0,.17,.01,.21,.06,.67,.81,1.17,1.69,1.22,2.77,0,.03,0,.07,0,.1,0,.43-.21,.63-.64,.61-.58-.03-1.09-.28-1.54-.64-.94-.77-1.44-1.79-1.66-2.96,0-.03,0-.05,0-.11Z"/></g></g></svg>